<?xml version="1.0" encoding="UTF-8"?>
<svg width="108px" height="108px" viewBox="0 0 108 108" version="1.1" xmlns="http://www.w3.org/2000/svg" xmlns:xlink="http://www.w3.org/1999/xlink">
    <title>Android App FG</title>
    <defs>
        <path d="M20.2130751,3 C29.7457627,3 35,8.26829268 35,16.1707317 L35,16.1707317 L35,39.5121951 C35,40.3170732 34.3244552,40.9756098 33.4987893,40.9756098 L33.4987893,40.9756098 L28.5447942,40.9756098 C26.5932203,40.9756098 26.7433414,38.8536585 25.1670702,38.8536585 C24.5328853,38.8536585 24.0101189,39.2782377 23.3011037,39.8154604 L23.0574589,39.9982787 C21.8425545,40.8979287 20.0583585,42 16.4600484,42 C8.95399516,42 4,37.0243902 4,29.7073171 C4,23.195122 8.42857143,17.9268293 16.9104116,17.9268293 L16.9104116,17.9268293 L24.2663438,17.9268293 C24.716707,17.9268293 25.0169492,17.6341463 25.0169492,17.195122 L25.0169492,17.195122 L25.0169492,16.097561 C25.0169492,13.3902439 23.3656174,11.9268293 20.2130751,11.9268293 C17.3607748,11.9268293 15.9346247,12.9512195 15.409201,14.7073171 C15.0338983,15.6585366 14.5835351,15.7317073 13.6077482,15.7317073 L13.6077482,15.7317073 L7.00242131,15.7317073 C6.02663438,15.7317073 5.50121065,15.0731707 5.50121065,14.195122 C5.50121065,8.92682927 10.8305085,3 20.2130751,3 Z M24.2663438,25.902439 L18.6368039,25.902439 C16.0096852,25.902439 14.433414,27.3658537 14.433414,29.5609756 C14.433414,32.0487805 16.3099274,33.5121951 19.2372881,33.5121951 C22.464891,33.5121951 25.0169492,31.902439 25.0169492,28.4634146 L25.0169492,28.4634146 L25.0169492,26.7073171 C25.0169492,26.195122 24.6416465,25.902439 24.2663438,25.902439 L24.2663438,25.902439 Z" id="path-1"></path>
    </defs>
    <g id="Android-App-FG" stroke="none" stroke-width="1" fill="none" fill-rule="evenodd">
        <g id="Group" transform="translate(33.000000, 29.000000)" fill-rule="nonzero">
            <path d="M20.3970944,-2 C26.8543931,-2 31.8500105,-0.322011622 35.2901449,2.48816167 C39.0058176,5.52341645 41,9.89702627 41,15.1963217 L41,15.1963217 L41,42.1275808 C41,43.1648435 40.5485375,44.1223923 39.7782211,44.8110772 C39.0938106,45.4229598 38.153274,45.816061 37.1113801,45.816061 L37.1113801,45.816061 L28.7432514,45.816061 C28.6214941,46.1723807 28.5456613,46.6043121 28.4518083,47.0189446 C28.2462904,47.9268998 28.0146038,48.7991883 27.7021959,49.3858281 C27.4544103,49.8511202 27.14929,50.2026516 26.8222715,50.4523533 C26.6918353,50.5519504 26.5466883,50.6439197 26.3863978,50.7259294 C24.1236911,51.2720343 23.6695049,50.5871201 23.1063097,49.8784178 C22.8107291,49.506471 22.4969907,48.9576266 22.18009,48.3308056 C21.7172359,47.402917 21.4219962,46.7297833 21.0620768,46.3226433 C20.7101822,45.9245809 20.4355423,45.816061 20.1724138,45.816061 C18.8718635,45.816061 17.7767737,45.9546517 16.8098704,46.0739302 C15.9006413,46.1860939 15.086566,46.2806071 14.3232219,46.2806071 C9.86470112,46.2806071 5.64891197,44.7025987 2.62759085,41.8621318 C-0.188145037,39.2149439 -2,35.4721617 -2,30.8147635 C-2,27.1983885 -1.74433819,23.5552503 -1.44114789,20.4256676 L-1.34406645,19.4550796 C-1.13135216,17.3918572 -0.906644148,15.5956787 -0.736609408,14.2396131 C-0.65938506,13.6237314 -0.593821838,13.1012876 -0.546682623,12.6894417 C-0.116595331,8.93185437 2.21368469,4.82974004 6.51041476,1.90200625 C9.90496704,-0.410995779 14.5406559,-2 20.3970944,-2 L20.3970944,-2 Z" id="bubble" stroke="#FFF1E9" stroke-width="4"></path>
            <g id="Combined-Shape">
                <use fill="#FFFFFF" xlink:href="#path-1"></use>
                <use fill="#FFF1E9" xlink:href="#path-1"></use>
            </g>
        </g>
    </g>
</svg>